<?xml version="1.0" encoding="utf-8"?>
<!-- Generator: Adobe Illustrator 24.0.1, SVG Export Plug-In . SVG Version: 6.00 Build 0)  -->
<svg version="1.1" id="Layer_1" xmlns="http://www.w3.org/2000/svg" xmlns:xlink="http://www.w3.org/1999/xlink" x="0px" y="0px"
	 viewBox="0 0 60.6 60.5" style="enable-background:new 0 0 60.6 60.5;" xml:space="preserve">
<style type="text/css">
	.st0{fill:#422AD5;}
	.st1{fill:#FFFFFF;}
	.st2{fill:#E00505;}
	.st3{fill:#FF0000;}
	.st4{fill:#F43098;}
	.st5{fill:none;}
	.st6{fill:url(#SVGID_1_);}
	.st7{fill:url(#SVGID_2_);}
	.st8{fill:url(#SVGID_3_);}
	.st9{fill:url(#SVGID_4_);}
	.st10{fill:url(#SVGID_5_);}
	.st11{fill:url(#SVGID_6_);}
	.st12{fill:url(#SVGID_7_);}
	.st13{fill:url(#SVGID_8_);}
	.st14{fill:url(#SVGID_9_);}
</style>
<circle class="st0" cx="30.3" cy="30.3" r="30.3"/>
<g>
	<path class="st1" d="M39.7,13.1h-10v12h-3.3V11.4V9.7h1.7h11.7c4,0,7.7,1.6,10.3,4.3c2.6,2.6,4.3,6.3,4.3,10.3
		c0,4-1.6,7.7-4.3,10.3c-2.6,2.6-6.3,4.3-10.3,4.3h-10v12h-3.3V37.2v-1.7h1.7h11.7c3.1,0,5.9-1.3,8-3.3c2-2,3.3-4.8,3.3-8
		c0-3.1-1.3-5.9-3.3-8C45.7,14.3,42.8,13.1,39.7,13.1"/>
	<path class="st1" d="M22.7,25.1h-3.3V9.7h3.3V25.1z M39.4,31.8H22.7v19.1h-3.3V30.1v-1.7H21h18.4V31.8z M15.6,50.9h-3.3V9.7h3.3
		V50.9z"/>
</g>
</svg>
