<?xml version="1.0" encoding="utf-8"?>
<!-- Generator: Adobe Illustrator 24.0.1, SVG Export Plug-In . SVG Version: 6.00 Build 0)  -->
<svg version="1.1" id="Layer_1" xmlns="http://www.w3.org/2000/svg" xmlns:xlink="http://www.w3.org/1999/xlink" x="0px" y="0px"
	 viewBox="0 0 230.7 59.6" style="enable-background:new 0 0 230.7 59.6;" xml:space="preserve">
<style type="text/css">
	.st0{fill:#422AD5;}
	.st1{fill:#FFFFFF;}
	.st2{fill:#E00505;}
	.st3{fill:#FF0000;}
	.st4{fill:#F43098;}
	.st5{fill:none;}
	.st6{fill:url(#SVGID_1_);}
	.st7{fill:url(#SVGID_2_);}
	.st8{fill:url(#SVGID_3_);}
	.st9{fill:url(#SVGID_4_);}
	.st10{fill:url(#SVGID_5_);}
	.st11{fill:url(#SVGID_6_);}
	.st12{fill:url(#SVGID_7_);}
	.st13{fill:url(#SVGID_8_);}
	.st14{fill:url(#SVGID_9_);}
</style>
<g>
	<path class="st1" d="M165.4,11c-0.9-0.9-1.4-1.9-1.4-3.2c0-1.3,0.5-2.4,1.4-3.2c0.9-0.9,2.1-1.3,3.6-1.3c1.4,0,2.6,0.4,3.5,1.3
		c0.9,0.9,1.4,1.9,1.4,3.2c0,1.3-0.5,2.3-1.4,3.2c-0.9,0.9-2.1,1.3-3.5,1.3C167.5,12.3,166.3,11.9,165.4,11z"/>
	<g>
		<path class="st2" d="M159.8,27.4c0,8.1-14.6,28.7-14.6,28.7V34.3c3.9,0,7.1-3.2,7.1-7.1c0-3.9-3.2-7.1-7.1-7.1v-7.3
			c2.9,0,5.5,0.8,7.7,2.2c1.1,0.7,2.2,1.6,3.1,2.6c0,0,0,0,0,0C158.3,20.2,159.8,23.6,159.8,27.4z"/>
		<path class="st3" d="M138,27.2c0,3.9,3.2,7.1,7.1,7.1v21.8c0,0-14.6-20.6-14.6-28.7c0-3.7,1.4-7.1,3.6-9.7c0-0.1,0.1-0.1,0.2-0.2
			c0,0,0-0.1,0.1-0.1c0,0,0,0.1-0.1,0.1c0.8-0.9,1.7-1.6,2.6-2.3c0,0,0,0-0.1,0c0,0,0,0,0.1,0c0.1-0.1,0.3-0.2,0.4-0.3
			c2.3-1.4,4.9-2.2,7.8-2.2v7.3C141.2,20.1,138,23.3,138,27.2z"/>
		<circle class="st1" cx="145.1" cy="27" r="2.1"/>
	</g>
	<path class="st4" d="M23.4,24.6H11.2v12.3H2.4V5.3h8.8v11.1h12.2V5.3h8.8v31.6h-8.8V24.6z"/>
	<path class="st4" d="M37.3,25.4c0-1.8,0.3-3.4,0.8-4.9c0.5-1.5,1.2-2.7,2.2-3.8c0.9-1.1,2.1-1.9,3.4-2.4c1.3-0.6,2.8-0.9,4.4-0.9
		c3.4,0,5.9,1,7.6,3.1l0.2-2.6h7.7v22.9h-8.1l-0.1-2.7c-0.9,1-1.9,1.8-3.2,2.3c-1.2,0.5-2.6,0.8-4.2,0.8c-1.6,0-3-0.3-4.4-0.9
		s-2.4-1.4-3.4-2.4c-0.9-1-1.7-2.3-2.2-3.8C37.5,28.8,37.3,27.2,37.3,25.4z M46,25.4c0,1.5,0.4,2.7,1.2,3.6c0.8,0.9,1.9,1.3,3.2,1.3
		c1.4,0,2.6-0.4,3.4-1.3c0.8-0.9,1.2-2.1,1.2-3.7c0-1.5-0.4-2.7-1.2-3.6c-0.8-0.9-1.9-1.3-3.2-1.3c-1.4,0-2.6,0.4-3.4,1.3
		C46.4,22.7,46,23.9,46,25.4z"/>
	<path class="st4" d="M69.2,4h8.6v32.9h-8.6V4z"/>
	<path class="st4" d="M83.6,4h8.6v32.9h-8.6V4z"/>
	<path class="st1" d="M98.2,4.1h14.1c2.1,0,4,0.3,5.7,0.8c1.7,0.5,3.1,1.3,4.3,2.3c1.2,1,2.1,2.2,2.7,3.6c0.6,1.4,1,3,1,4.7
		c0,1.8-0.3,3.4-1,4.8c-0.6,1.4-1.6,2.6-2.8,3.6c-1.2,1-2.7,1.7-4.4,2.3c-1.7,0.5-3.7,0.8-5.8,0.8h-4.7v10h-9.1V4.1z M112.3,19.4
		c1.4,0,2.5-0.3,3.2-0.9c0.7-0.6,1.1-1.5,1.1-2.6c0-1.1-0.4-2-1.2-2.6c-0.8-0.6-1.9-0.9-3.3-0.9h-4.8v7.1H112.3z"/>
	<rect x="164.6" y="14" class="st1" width="8.6" height="22.9"/>
	<path class="st1" d="M179,36.9V14h8.2l0.1,3.1c0.9-1.1,2.1-2,3.4-2.6c1.3-0.6,2.8-0.9,4.4-0.9c2.9,0,5.1,0.8,6.8,2.5
		c1.6,1.7,2.4,4,2.4,6.9v13.9h-8.6V24.8c0-2.5-1.2-3.7-3.5-3.7c-1.4,0-2.5,0.4-3.4,1.2c-0.8,0.8-1.3,2-1.4,3.4v11.1H179z"/>
	<path class="st1" d="M211.8,20.9h-3V14h3V7.8h8.6V14h5.9v6.9h-5.9v6.2c0,1.1,0.3,1.9,0.9,2.5c0.6,0.6,1.5,0.9,2.7,0.9
		c0.5,0,1,0,1.5,0c0.6,0,1.2-0.1,1.8-0.1V37c-0.5,0.1-1,0.2-1.6,0.2c-0.6,0-1.1,0.1-1.7,0.1c-0.6,0-1.1,0-1.7,0c-0.5,0-1,0-1.5,0
		c-3.1,0-5.4-0.9-6.9-2.7c-1.5-1.8-2.2-4.3-2.2-7.4V20.9z"/>
</g>
</svg>
