<?xml version="1.0" encoding="utf-8"?>
<!-- Generator: Adobe Illustrator 24.0.1, SVG Export Plug-In . SVG Version: 6.00 Build 0)  -->
<svg version="1.1" id="Layer_1" xmlns="http://www.w3.org/2000/svg" xmlns:xlink="http://www.w3.org/1999/xlink" x="0px" y="0px"
	 viewBox="0 0 232.1 59.6" style="enable-background:new 0 0 232.1 59.6;" xml:space="preserve">
<style type="text/css">
	.st0{fill:#422AD5;}
	.st1{fill:#FFFFFF;}
	.st2{fill:#E00505;}
	.st3{fill:#FF0000;}
	.st4{fill:#F43098;}
	.st5{fill:none;}
	.st6{fill:url(#SVGID_1_);}
	.st7{fill:url(#SVGID_2_);}
	.st8{fill:url(#SVGID_3_);}
	.st9{fill:url(#SVGID_4_);}
	.st10{fill:url(#SVGID_5_);}
	.st11{fill:url(#SVGID_6_);}
	.st12{fill:url(#SVGID_7_);}
	.st13{fill:url(#SVGID_8_);}
	.st14{fill:url(#SVGID_9_);}
</style>
<g>
	<g>
		<path class="st2" d="M160.6,27.7c0,8.1-14.6,28.7-14.6,28.7V34.7c3.9,0,7.1-3.2,7.1-7.1c0-3.9-3.2-7.1-7.1-7.1v-7.3
			c2.9,0,5.5,0.8,7.7,2.2c1.1,0.7,2.2,1.6,3.1,2.6c0,0,0,0,0,0C159.2,20.5,160.6,23.9,160.6,27.7z"/>
		<path class="st3" d="M138.9,27.6c0,3.9,3.2,7.1,7.1,7.1v21.8c0,0-14.6-20.6-14.6-28.7c0-3.7,1.4-7.1,3.6-9.7
			c0-0.1,0.1-0.1,0.2-0.2c0,0,0-0.1,0.1-0.1c0,0,0,0.1-0.1,0.1c0.8-0.9,1.7-1.6,2.6-2.3c0,0,0,0-0.1,0c0,0,0,0,0.1,0
			c0.1-0.1,0.3-0.2,0.4-0.3c2.3-1.4,4.9-2.2,7.8-2.2v7.3C142.1,20.4,138.9,23.6,138.9,27.6z"/>
		<circle class="st1" cx="146" cy="27.3" r="2.1"/>
	</g>
	<g>
		<path class="st5" d="M113,12.6h-4.8v7.1h5c1.4,0,2.5-0.3,3.2-0.9c0.7-0.6,1.1-1.5,1.1-2.6c0-1.1-0.4-2-1.2-2.6
			C115.5,12.9,114.4,12.6,113,12.6z"/>
		<path class="st5" d="M51.4,20.8c-1.4,0-2.6,0.4-3.4,1.3c-0.8,0.9-1.2,2.1-1.2,3.7c0,1.5,0.4,2.7,1.2,3.6c0.8,0.9,1.9,1.3,3.2,1.3
			c1.4,0,2.6-0.4,3.4-1.3c0.8-0.9,1.2-2.1,1.2-3.7c0-1.5-0.4-2.7-1.2-3.6C53.9,21.2,52.8,20.8,51.4,20.8z"/>
		<linearGradient id="SVGID_1_" gradientUnits="userSpaceOnUse" x1="164.8962" y1="8.1587" x2="174.7856" y2="8.1587">
			<stop  offset="0" style="stop-color:#422AD5"/>
			<stop  offset="0.5248" style="stop-color:#A22DB4"/>
			<stop  offset="1" style="stop-color:#F43098"/>
		</linearGradient>
		<path class="st6" d="M169.9,3.7c-1.5,0-2.7,0.4-3.6,1.3c-0.9,0.9-1.4,1.9-1.4,3.2c0,1.3,0.5,2.3,1.4,3.2c0.9,0.9,2.1,1.3,3.6,1.3
			c1.4,0,2.6-0.4,3.5-1.3c0.9-0.9,1.4-1.9,1.4-3.2c0-1.3-0.5-2.4-1.4-3.2C172.5,4.1,171.3,3.7,169.9,3.7z"/>
		<linearGradient id="SVGID_2_" gradientUnits="userSpaceOnUse" x1="3.319" y1="21.4263" x2="33.1036" y2="21.4263">
			<stop  offset="0" style="stop-color:#422AD5"/>
			<stop  offset="0.5248" style="stop-color:#A22DB4"/>
			<stop  offset="1" style="stop-color:#F43098"/>
		</linearGradient>
		<polygon class="st7" points="24.3,16.7 12.1,16.7 12.1,5.6 3.3,5.6 3.3,37.2 12.1,37.2 12.1,24.9 24.3,24.9 24.3,37.2 33.1,37.2 
			33.1,5.6 24.3,5.6 		"/>
		<linearGradient id="SVGID_3_" gradientUnits="userSpaceOnUse" x1="38.1583" y1="25.7586" x2="64.3326" y2="25.7586">
			<stop  offset="0" style="stop-color:#422AD5"/>
			<stop  offset="0.5248" style="stop-color:#A22DB4"/>
			<stop  offset="1" style="stop-color:#F43098"/>
		</linearGradient>
		<path class="st8" d="M56.4,16.9c-1.7-2-4.2-3.1-7.6-3.1c-1.6,0-3,0.3-4.4,0.9c-1.3,0.6-2.4,1.4-3.4,2.4c-0.9,1.1-1.7,2.3-2.2,3.8
			c-0.5,1.5-0.8,3.1-0.8,4.9c0,1.8,0.3,3.4,0.8,4.9c0.5,1.5,1.2,2.7,2.2,3.8c0.9,1,2.1,1.8,3.4,2.4s2.8,0.9,4.4,0.9
			c1.5,0,2.9-0.3,4.2-0.8c1.2-0.5,2.3-1.3,3.2-2.3l0.1,2.7h8.1V14.3h-7.7L56.4,16.9z M54.7,29.4c-0.8,0.9-1.9,1.3-3.4,1.3
			c-1.4,0-2.5-0.4-3.2-1.3c-0.8-0.9-1.2-2.1-1.2-3.6c0-1.6,0.4-2.8,1.2-3.7c0.8-0.9,1.9-1.3,3.4-1.3c1.4,0,2.4,0.4,3.2,1.3
			c0.8,0.9,1.2,2.1,1.2,3.6C55.8,27.3,55.4,28.5,54.7,29.4z"/>
		<linearGradient id="SVGID_4_" gradientUnits="userSpaceOnUse" x1="70.108" y1="20.7495" x2="78.6823" y2="20.7495">
			<stop  offset="0" style="stop-color:#422AD5"/>
			<stop  offset="0.5248" style="stop-color:#A22DB4"/>
			<stop  offset="1" style="stop-color:#F43098"/>
		</linearGradient>
		<rect x="70.1" y="4.3" class="st9" width="8.6" height="32.9"/>
		<linearGradient id="SVGID_5_" gradientUnits="userSpaceOnUse" x1="84.4586" y1="20.7495" x2="93.0328" y2="20.7495">
			<stop  offset="0" style="stop-color:#422AD5"/>
			<stop  offset="0.5248" style="stop-color:#A22DB4"/>
			<stop  offset="1" style="stop-color:#F43098"/>
		</linearGradient>
		<rect x="84.5" y="4.3" class="st10" width="8.6" height="32.9"/>
		<linearGradient id="SVGID_6_" gradientUnits="userSpaceOnUse" x1="99.0807" y1="20.8074" x2="126.8433" y2="20.8074">
			<stop  offset="0" style="stop-color:#422AD5"/>
			<stop  offset="0.5248" style="stop-color:#A22DB4"/>
			<stop  offset="1" style="stop-color:#F43098"/>
		</linearGradient>
		<path class="st11" d="M123.1,7.5c-1.2-1-2.6-1.8-4.3-2.3c-1.7-0.5-3.6-0.8-5.7-0.8H99.1v32.8h9.1v-10h4.7c2.2,0,4.1-0.3,5.8-0.8
			c1.7-0.5,3.2-1.3,4.4-2.3c1.2-1,2.1-2.2,2.8-3.6c0.6-1.4,1-3,1-4.8c0-1.8-0.3-3.3-1-4.7C125.2,9.7,124.3,8.5,123.1,7.5z
			 M116.4,18.7c-0.7,0.6-1.8,0.9-3.2,0.9h-5v-7.1h4.8c1.4,0,2.5,0.3,3.3,0.9c0.8,0.6,1.2,1.5,1.2,2.6
			C117.5,17.3,117.1,18.1,116.4,18.7z"/>
		<linearGradient id="SVGID_7_" gradientUnits="userSpaceOnUse" x1="165.5309" y1="25.7588" x2="174.151" y2="25.7588">
			<stop  offset="0" style="stop-color:#422AD5"/>
			<stop  offset="0.5248" style="stop-color:#A22DB4"/>
			<stop  offset="1" style="stop-color:#F43098"/>
		</linearGradient>
		<rect x="165.5" y="14.3" class="st12" width="8.6" height="22.9"/>
		<linearGradient id="SVGID_8_" gradientUnits="userSpaceOnUse" x1="179.8815" y1="25.533" x2="205.2438" y2="25.533">
			<stop  offset="0" style="stop-color:#422AD5"/>
			<stop  offset="0.5248" style="stop-color:#A22DB4"/>
			<stop  offset="1" style="stop-color:#F43098"/>
		</linearGradient>
		<path class="st13" d="M196,13.8c-1.6,0-3.1,0.3-4.4,0.9c-1.3,0.6-2.5,1.5-3.4,2.6l-0.1-3.1h-8.2v22.9h8.6V26.1
			c0.1-1.4,0.5-2.6,1.4-3.4c0.8-0.8,2-1.2,3.4-1.2c2.3,0,3.5,1.2,3.5,3.7v12.1h8.6V23.3c0-3-0.8-5.3-2.4-6.9
			C201.2,14.7,198.9,13.8,196,13.8z"/>
		<linearGradient id="SVGID_9_" gradientUnits="userSpaceOnUse" x1="209.7106" y1="22.9156" x2="228.2574" y2="22.9156">
			<stop  offset="0" style="stop-color:#422AD5"/>
			<stop  offset="0.5248" style="stop-color:#A22DB4"/>
			<stop  offset="1" style="stop-color:#F43098"/>
		</linearGradient>
		<path class="st14" d="M226.4,30.8c-0.6,0-1.1,0-1.5,0c-1.2,0-2.1-0.3-2.7-0.9c-0.6-0.6-0.9-1.5-0.9-2.5v-6.2h5.9v-6.9h-5.9V8.2
			h-8.6v6.1h-3v6.9h3v6.4c0,3.2,0.7,5.6,2.2,7.4c1.5,1.8,3.8,2.7,6.9,2.7c0.5,0,0.9,0,1.5,0c0.5,0,1.1,0,1.7,0c0.6,0,1.1,0,1.7-0.1
			c0.6,0,1.1-0.1,1.6-0.2v-6.7C227.6,30.7,227,30.7,226.4,30.8z"/>
	</g>
</g>
</svg>
